<svg width="24" height="24" viewBox="0 0 24 24" fill="none" xmlns="http://www.w3.org/2000/svg">
<path d="M22.9674 7.20152H6.16216L4.80541 1.60352H1.03516V2.40302H4.17616L8.07466 18.4853C7.24366 18.7275 6.63241 19.4858 6.63241 20.3955C6.63241 21.4995 7.52716 22.395 8.63191 22.395C9.73666 22.395 10.6314 21.4995 10.6314 20.3955C10.6314 19.9433 10.4754 19.5308 10.2227 19.1963H15.8379C15.5852 19.5308 15.4292 19.944 15.4292 20.3955C15.4292 21.4995 16.3239 22.395 17.4279 22.395C18.5319 22.395 19.4274 21.4995 19.4274 20.3955C19.4274 19.2908 18.5327 18.3968 17.4279 18.396H8.87566L8.48791 16.7963H19.7139L22.9667 7.20002L22.9674 7.20152ZM9.83116 20.397C9.83116 21.0585 9.29341 21.5963 8.63191 21.5963C7.97041 21.5963 7.43266 21.0585 7.43266 20.397C7.43266 19.7355 7.97041 19.1978 8.63191 19.1978C9.29341 19.1978 9.83116 19.7363 9.83116 20.397ZM18.6279 20.397C18.6279 21.0585 18.0894 21.5963 17.4279 21.5963C16.7664 21.5963 16.2287 21.0585 16.2287 20.397C16.2287 19.7355 16.7664 19.1978 17.4279 19.1978C18.0894 19.1978 18.6279 19.7363 18.6279 20.397ZM8.29441 15.9983L6.35566 8.00177H21.8522L19.1409 15.9983H8.29441Z" fill="white"/>
</svg>
