<svg width="24" height="24" viewBox="0 0 24 24" fill="none" xmlns="http://www.w3.org/2000/svg">
<path d="M16.4145 3.83637C19.0552 3.83637 21.1965 5.97762 21.1965 8.61837C21.1965 9.97512 20.631 11.1976 19.7235 12.0684L12.0007 19.8301L4.13775 11.9281C3.31275 11.0686 2.80425 9.90387 2.80425 8.61837C2.80425 5.97687 4.9455 3.83637 7.58625 3.83637C9.57525 3.83637 11.28 5.05137 12.0007 6.77937C12.7215 5.05137 14.4262 3.83637 16.4152 3.83637H16.4145ZM16.4145 3.03687C14.6557 3.03687 13.0402 3.85362 12 5.19987C10.9605 3.85362 9.345 3.03687 7.5855 3.03687C4.5075 3.03687 2.004 5.54112 2.004 8.61837C2.004 10.0644 2.55675 11.4369 3.56025 12.4824L12 20.9641L20.2897 12.6331C21.3847 11.5816 21.996 10.1521 21.996 8.61911C21.996 5.54112 19.4917 3.03762 16.4145 3.03762V3.03687Z" fill="white"/>
</svg>
