<svg width="24" height="24" viewBox="0 0 24 24" fill="none" xmlns="http://www.w3.org/2000/svg">
<path d="M21.4433 20.4546L15.996 15.0066C17.091 13.6896 17.7503 11.9991 17.7503 10.1534C17.7503 5.95714 14.349 2.55664 10.1535 2.55664C5.95801 2.55664 2.55676 5.95789 2.55676 10.1534C2.55676 14.3489 5.95876 17.7501 10.1535 17.7501C12 17.7501 13.6905 17.0909 15.0068 15.9959L20.454 21.4439L21.4433 20.4546ZM3.35626 10.1534C3.35626 6.40564 6.40501 3.35614 10.1535 3.35614C13.9013 3.35614 16.9508 6.40564 16.9508 10.1534C16.9508 13.9011 13.9013 16.9506 10.1535 16.9506C6.40501 16.9506 3.35626 13.9011 3.35626 10.1534Z" fill="white"/>
</svg>
