<svg width="32" height="32" viewBox="0 0 32 32" fill="none" xmlns="http://www.w3.org/2000/svg">
<circle cx="16.5" cy="16.5" r="15.5" fill="#18191B"/>
<path d="M16.5 1C7.937 1 1 7.938 1 16.5C1 25.062 7.938 32 16.5 32C25.063 32 32 25.062 32 16.5C32 7.938 25.062 1 16.5 1ZM24.113 11.619L21.569 23.607C21.381 24.457 20.875 24.663 20.169 24.263L16.294 21.407L14.425 23.207C14.219 23.413 14.044 23.588 13.644 23.588L13.919 19.644L21.1 13.156C21.413 12.881 21.031 12.725 20.618 13L11.743 18.587L7.918 17.393C7.087 17.131 7.068 16.562 8.093 16.162L23.037 10.399C23.731 10.149 24.337 10.568 24.112 11.618L24.113 11.619Z" fill="white"/>
</svg>
