<svg width="166" height="40" viewBox="0 0 166 40" fill="none" xmlns="http://www.w3.org/2000/svg">
<path d="M36.2063 15.1896C36.1699 16.1375 36.1608 17.81 36.179 20.2071C36.1972 22.5952 36.1608 24.2631 36.0696 25.211C35.9329 27.0704 35.6868 28.5743 35.3313 29.7228C34.8483 31.2814 34.0462 32.5027 32.9251 33.3868C32.2142 33.9519 31.4166 34.3119 30.5325 34.4669C29.6484 34.631 28.778 34.5626 27.9212 34.2618C27.0735 33.9702 26.3717 33.4597 25.8157 32.7306C25.2597 32.0105 24.8951 31.1811 24.722 30.2423C24.5488 29.3035 24.6126 28.3829 24.9134 27.4806C25.2233 26.5691 25.7656 25.8582 26.5403 25.3478C27.0599 25.0014 27.6158 24.8009 28.2083 24.7462C28.8099 24.6915 29.3932 24.8054 29.9583 25.088C30.4869 25.3705 30.8971 25.767 31.1888 26.2774C31.4895 26.7879 31.5852 27.3165 31.4759 27.8634C31.4759 27.8907 31.4576 27.909 31.4212 27.9181C31.3847 27.9181 31.3483 27.909 31.3118 27.8907C31.2845 27.8725 31.2708 27.8497 31.2708 27.8224C31.2617 26.9747 30.9472 26.2729 30.3274 25.7169C29.7168 25.1518 28.9967 24.9467 28.1673 25.1017C27.4655 25.2293 26.8639 25.562 26.3626 26.0997C25.8613 26.6284 25.5286 27.2481 25.3645 27.9591C25.2643 28.3328 25.2278 28.7293 25.2552 29.1485C25.2825 29.5769 25.3418 30.0008 25.4329 30.42C25.524 30.8484 25.6744 31.254 25.8841 31.6368C26.1028 32.0287 26.3444 32.3751 26.6087 32.6759C26.8821 32.9767 27.2102 33.2182 27.5931 33.4005C27.9759 33.5828 28.3815 33.6785 28.8099 33.6876C29.8033 33.6967 30.7786 33.282 31.7356 32.4435C32.5195 31.7599 33.1438 30.7618 33.6087 29.4493C33.8548 28.7566 34.0462 27.9773 34.1829 27.1114C34.3196 26.2455 34.4017 25.4981 34.429 24.8692C34.4655 24.2403 34.4928 23.4383 34.511 22.463C34.5201 21.9981 34.5293 21.3373 34.5384 20.4806C34.5475 19.6147 34.5566 18.8308 34.5657 18.129C34.5839 17.4181 34.6067 16.7527 34.6341 16.1329C33.7682 17.7553 32.8112 19.1544 31.763 20.3302C30.7148 21.4968 29.5117 22.3217 28.1536 22.8048C27.4062 23.0873 26.6224 23.1785 25.802 23.0782C24.9908 22.978 24.2298 22.7592 23.5188 22.422C22.817 22.0756 22.1881 21.5971 21.6321 20.9864C21.0761 20.3666 20.6842 19.6876 20.4563 18.9493C20.0644 17.6733 19.9687 16.0919 20.1692 14.2052C20.3606 12.3093 20.8665 10.5366 21.6868 8.88682C22.1881 7.8751 22.7669 6.90895 23.4231 5.98838C23.0494 5.78786 22.3339 5.39593 21.2767 4.8126C20.2285 4.22015 19.4355 3.78265 18.8977 3.5001C18.36 3.21755 17.6491 2.89854 16.7649 2.54307C15.8808 2.17849 15.0468 1.90961 14.263 1.73643C11.3919 1.08929 8.89449 1.29437 6.77079 2.35166C5.77731 2.84385 4.89319 3.48643 4.11845 4.2794C3.35283 5.06325 2.76038 5.94737 2.34111 6.93174C2.01298 7.71559 1.83069 8.54502 1.79423 9.42002C1.75777 10.295 1.86715 11.1381 2.12236 11.9493C2.38668 12.7514 2.75582 13.4897 3.22978 14.1642C3.71285 14.8386 4.32809 15.3992 5.07548 15.8458C5.82288 16.2833 6.63863 16.5431 7.52275 16.6251C8.68941 16.7345 9.83785 16.5431 10.9681 16.0509C12.1074 15.5587 13.0781 14.8569 13.8802 13.9454C15.302 12.3139 16.0312 10.058 16.0677 7.17783C16.0768 6.87705 16.25 6.71299 16.5872 6.68565C16.9336 6.6583 17.2161 6.76312 17.4349 7.0001C17.5625 7.1277 17.6217 7.27354 17.6126 7.4376C17.5123 8.73187 17.1888 9.9988 16.6419 11.2384C16.095 12.4689 15.3841 13.558 14.5091 14.506C13.6432 15.4539 12.595 16.1922 11.3645 16.7208C10.1341 17.2403 8.84892 17.4363 7.50908 17.3087C6.09632 17.172 4.8385 16.6433 3.73564 15.7228C2.64189 14.7931 1.84892 13.6537 1.35673 12.3048C0.873659 10.9558 0.75517 9.58864 1.00126 8.20323C1.20178 7.08213 1.6165 6.04307 2.2454 5.08604C2.87431 4.11989 3.63082 3.31325 4.51494 2.66612C5.40816 2.01898 6.3971 1.50856 7.48173 1.13487C8.56637 0.761168 9.66923 0.560647 10.7903 0.533303C13.2057 0.469501 15.776 1.06651 18.5013 2.32432C19.2213 2.66156 20.2194 3.17653 21.4954 3.86924C22.7806 4.56195 23.6145 5.00856 23.9974 5.20908C24.2799 4.85362 24.5852 4.50726 24.9134 4.17002C26.4173 2.57497 27.9075 1.64528 29.3841 1.38096C30.177 1.23513 30.9199 1.30349 31.6126 1.58604C32.3053 1.86859 32.8522 2.34255 33.2532 3.00791C33.5358 3.41807 33.7226 3.91937 33.8138 4.51182C33.914 5.09515 33.9095 5.61013 33.8001 6.05674C33.6907 6.55804 33.4948 7.00466 33.2122 7.39658C32.9296 7.78851 32.5651 8.07562 32.1185 8.25791C31.7265 8.42198 31.2708 8.49945 30.7513 8.49033C30.2317 8.47211 29.8033 8.42653 29.4661 8.35362C29.138 8.2807 28.6914 8.16221 28.1263 7.99815C27.069 7.69737 25.9615 7.26442 24.804 6.69932C24.7675 6.75401 24.7083 6.84059 24.6263 6.95908C24.5533 7.06846 24.4987 7.15049 24.4622 7.20518C23.5143 8.63617 22.7988 10.1264 22.3157 11.6759C21.9147 12.9884 21.705 14.4604 21.6868 16.0919C21.6686 17.7143 21.9192 18.963 22.4388 19.838C22.7395 20.3575 23.177 20.7905 23.7513 21.1368C24.3346 21.4832 24.9453 21.7019 25.5833 21.7931C26.6953 21.9571 27.83 21.6746 28.9876 20.9454C29.58 20.5808 30.1451 20.157 30.6829 19.6739C31.2207 19.1817 31.7356 18.6303 32.2278 18.0196C32.7291 17.409 33.1575 16.8575 33.513 16.3653C33.8685 15.8731 34.2832 15.2625 34.7571 14.5333C34.8027 14.4422 34.903 14.4239 35.0579 14.4786C35.304 14.4148 35.5592 14.4558 35.8235 14.6017C36.0879 14.7475 36.2155 14.9435 36.2063 15.1896ZM27.552 3.66416C26.7773 4.28395 26.0573 5.02679 25.3919 5.89268L25.4739 5.93369C26.7773 6.52614 27.9668 6.93174 29.0423 7.15049C29.5071 7.24164 29.8854 7.30088 30.177 7.32823C30.4687 7.35557 30.8014 7.31455 31.1751 7.20518C31.5488 7.0958 31.8541 6.88617 32.0911 6.57627C32.3645 6.22992 32.556 5.77875 32.6653 5.22276C32.7838 4.66677 32.7656 4.11989 32.6106 3.58213C32.4648 3.04437 32.1731 2.67067 31.7356 2.46104C31.608 2.40635 31.5123 2.36989 31.4485 2.35166C31.1295 2.23317 30.7877 2.1876 30.4231 2.21494C30.414 2.21494 30.3912 2.2195 30.3548 2.22862C30.3183 2.22862 30.2955 2.22862 30.2864 2.22862C29.4935 2.37445 28.582 2.85296 27.552 3.66416Z" fill="white"/>
<path d="M58.6342 20.5489C58.6525 20.4942 58.698 20.4806 58.771 20.5079C58.853 20.5261 58.8894 20.5626 58.8803 20.6173C58.7801 21.6472 58.4383 22.9278 57.8549 24.4591C57.5268 25.3341 57.1668 26.0678 56.7749 26.6603C56.2098 27.5261 55.6583 27.9545 55.1206 27.9454C54.7742 27.9454 54.4506 27.8087 54.1499 27.5353C53.8491 27.2618 53.6212 26.9747 53.4663 26.6739C53.3113 26.364 53.1746 26.0314 53.0561 25.6759C52.892 25.1564 52.7599 24.6049 52.6596 24.0216C52.5685 23.4291 52.5047 22.9096 52.4682 22.463C52.4318 22.0073 52.4226 21.4285 52.4409 20.7267C52.4591 20.0248 52.4773 19.5008 52.4956 19.1544C52.5229 18.7989 52.5685 18.2202 52.6323 17.4181C52.7052 16.6069 52.7508 16.0691 52.769 15.8048C52.7508 15.8048 52.7189 15.8093 52.6733 15.8185C52.6277 15.8185 52.5958 15.8185 52.5776 15.8185C51.9669 15.8823 51.42 15.8823 50.937 15.8185C50.7911 17.1218 50.4129 19.1271 49.8022 21.8341C49.784 21.907 49.7338 22.1258 49.6518 22.4903C49.5698 22.8549 49.5151 23.0965 49.4877 23.2149C49.4695 23.3243 49.4194 23.5431 49.3374 23.8712C49.2553 24.1993 49.187 24.4409 49.1323 24.5958C49.0867 24.7508 49.0183 24.9695 48.9272 25.2521C48.8361 25.5346 48.7495 25.767 48.6674 25.9493C48.5945 26.1316 48.5034 26.3367 48.394 26.5646C48.2846 26.7833 48.1707 26.9884 48.0522 27.1798C47.642 27.836 47.1772 28.073 46.6577 27.8907C46.603 27.8725 46.5665 27.8543 46.5483 27.836C46.3113 27.7358 46.0971 27.5991 45.9057 27.4259C45.7143 27.2527 45.5502 27.0841 45.4135 26.92C45.2859 26.7468 45.1629 26.5099 45.0444 26.2091C44.935 25.9083 44.8484 25.6713 44.7846 25.4981C44.7299 25.3159 44.6707 25.0424 44.6069 24.6778C44.5431 24.3133 44.5021 24.0672 44.4838 23.9396C44.4656 23.8028 44.4337 23.5476 44.3881 23.1739C44.3699 23.0281 44.3562 22.9187 44.3471 22.8458C44.3107 22.5633 44.2833 22.1394 44.2651 21.5743C44.2377 21.5925 44.2058 21.5925 44.1694 21.5743C44.1329 21.547 44.1101 21.5151 44.101 21.4786C44.101 21.4695 44.0965 21.4513 44.0874 21.4239C44.0782 21.3966 44.0737 21.3738 44.0737 21.3556C44.0737 21.3738 44.0691 21.4057 44.06 21.4513C44.0509 21.4877 44.0418 21.5151 44.0327 21.5333C43.7957 22.4995 43.5678 23.3334 43.3491 24.0353C42.8842 25.5027 42.5196 26.478 42.2553 26.961C41.9728 27.4897 41.5991 27.8087 41.1342 27.9181C40.6694 28.0183 40.1954 27.8907 39.7124 27.5353C39.0926 27.0795 38.687 26.2729 38.4956 25.1153C38.3315 24.1401 38.3315 22.9643 38.4956 21.588C38.6596 20.2846 38.9012 19.0724 39.2202 17.9513C39.5301 16.8393 39.8673 16.0281 40.2319 15.5177C40.5236 15.0984 40.9064 14.8022 41.3803 14.629C41.8543 14.4467 42.3237 14.4376 42.7885 14.6017C43.2534 14.7566 43.6043 15.0802 43.8413 15.5724C43.9142 15.7273 43.9734 15.8914 44.019 16.0646C44.0737 16.2377 44.1147 16.4337 44.142 16.6524C44.1694 16.8621 44.1876 17.0398 44.1967 17.1856C44.215 17.3224 44.2286 17.5229 44.2377 17.7872C44.2469 18.0424 44.256 18.2156 44.2651 18.3067V18.3478C44.2651 18.3386 44.2696 18.325 44.2788 18.3067C44.2879 18.2794 44.2924 18.2612 44.2924 18.2521C44.3015 18.2156 44.3335 18.1883 44.3881 18.17C44.4155 17.8875 44.4565 17.4682 44.5112 16.9122C44.5659 16.3562 44.6023 15.9461 44.6206 15.6817C44.6388 15.4265 44.771 15.2761 45.017 15.2306C45.2631 15.1759 45.5047 15.2215 45.7417 15.3673C45.9786 15.5131 46.0926 15.7 46.0835 15.9278C46.0561 16.6114 45.9832 17.6733 45.8647 19.1134C45.7553 20.5535 45.687 21.6472 45.6596 22.3946C45.5958 23.9168 45.6186 24.9649 45.728 25.5392C45.9103 26.5418 46.2703 27.1752 46.8081 27.4396L46.8217 27.4532H46.8354C46.881 27.4715 46.922 27.476 46.9585 27.4669C47.004 27.4487 47.0314 27.4396 47.0405 27.4396C47.0861 27.4304 47.1271 27.4031 47.1635 27.3575C47.2638 27.2846 47.3549 27.198 47.437 27.0978C47.5281 26.9884 47.6056 26.8836 47.6694 26.7833C47.7423 26.683 47.8152 26.5554 47.8881 26.4005C47.9702 26.2455 48.0294 26.1225 48.0659 26.0314C48.1114 25.9311 48.1661 25.7853 48.2299 25.5939C48.3029 25.4024 48.3484 25.2703 48.3667 25.1974C48.394 25.1245 48.4396 24.9877 48.5034 24.7872C48.5672 24.5867 48.6036 24.4682 48.6127 24.4317C48.9591 23.338 49.3419 21.7612 49.7612 19.7013C50.1896 17.6323 50.4721 16.3152 50.6088 15.7501C49.9526 15.6043 49.4285 15.308 49.0366 14.8614C48.3348 14.0685 48.0522 13.0476 48.1889 11.7989C48.3165 10.5958 48.7039 9.84385 49.351 9.54307C49.5698 9.43369 49.8159 9.40179 50.0893 9.44737C50.3627 9.48382 50.5861 9.58864 50.7592 9.76182C51.0053 10.0079 51.1557 10.4636 51.2104 11.129C51.2286 11.3842 51.2058 12.0587 51.142 13.1524C51.1238 13.5261 51.0874 14.0867 51.0327 14.8341C51.0782 14.8523 51.1648 14.8705 51.2924 14.8888C51.4292 14.9161 51.6342 14.9389 51.9077 14.9571C52.1811 14.9754 52.5685 15.0209 53.0698 15.0939C53.3068 15.1212 53.5529 15.1941 53.8081 15.3126C53.8172 15.3126 53.8308 15.3217 53.8491 15.3399C53.8673 15.3491 53.881 15.3582 53.8901 15.3673C53.8992 15.3764 53.9174 15.3855 53.9448 15.3946C53.9721 15.4037 53.9949 15.4129 54.0131 15.422C54.0769 15.4675 54.1134 15.5131 54.1225 15.5587C54.2045 15.6681 54.2456 15.7911 54.2456 15.9278C54.1635 17.8054 54.0542 19.437 53.9174 20.8224C53.7169 22.8093 53.6987 24.3269 53.8627 25.3751C53.963 26.004 54.1499 26.5327 54.4233 26.961C54.56 27.1889 54.7377 27.3484 54.9565 27.4396C55.0112 27.4669 55.0568 27.476 55.0932 27.4669C55.2664 27.4487 55.435 27.3849 55.5991 27.2755C55.7631 27.157 55.9181 26.9975 56.0639 26.797C56.2189 26.5965 56.3374 26.4324 56.4194 26.3048C56.5014 26.1772 56.6017 26.0131 56.7202 25.8126C57.0027 25.3204 57.2488 24.7827 57.4585 24.1993C57.6681 23.6069 57.8777 22.9552 58.0874 22.2442C58.297 21.5242 58.4793 20.9591 58.6342 20.5489ZM41.8042 25.5118C42.0594 24.9376 42.3009 24.3133 42.5288 23.6388C42.7566 22.9643 42.9936 22.2169 43.2397 21.3966C43.4858 20.5763 43.6863 19.9383 43.8413 19.4825C43.7228 18.726 43.6499 18.284 43.6225 18.1564C43.6134 18.129 43.5861 17.9741 43.5405 17.6915C43.4949 17.409 43.4493 17.1811 43.4038 17.0079C43.3582 16.8347 43.2944 16.6297 43.2124 16.3927C43.1303 16.1466 43.0301 15.9552 42.9116 15.8185C42.7931 15.6817 42.6609 15.5997 42.5151 15.5724C42.3146 15.545 42.1095 15.6316 41.8999 15.8321C41.6993 16.0327 41.5444 16.2286 41.435 16.42C41.2892 16.7026 41.1433 17.0535 40.9975 17.4728C40.396 19.2319 40.0496 21.1869 39.9585 23.338C39.9038 24.4682 39.9585 25.3523 40.1225 25.9903C40.2137 26.364 40.323 26.642 40.4506 26.8243L40.5737 26.9747L40.6557 27.0157L40.6694 27.0294H40.6831L40.7377 27.0157V27.0294L40.7651 27.0157C40.7742 27.0157 40.7879 27.0066 40.8061 26.9884C40.879 26.9428 40.9292 26.9064 40.9565 26.879C41.2482 26.5873 41.5307 26.1316 41.8042 25.5118ZM50.1713 10.213C50.1531 10.213 50.1531 10.213 50.1713 10.213ZM50.2807 14.5333C50.2989 14.5424 50.3263 14.5606 50.3627 14.588C50.3992 14.6062 50.4265 14.6199 50.4448 14.629C50.4539 14.6381 50.4721 14.6518 50.4995 14.67L50.7045 14.7521C50.7045 14.6153 50.7045 14.3191 50.7045 13.8634C50.7045 13.3985 50.7 13.0613 50.6909 12.8517C50.6909 12.6329 50.6772 12.3458 50.6499 11.9903C50.6225 11.6349 50.5815 11.3159 50.5268 11.0333C50.4812 10.7963 50.4129 10.5867 50.3217 10.4044C50.3035 10.3771 50.2807 10.3452 50.2534 10.3087C50.2351 10.2722 50.226 10.2494 50.226 10.2403L50.1987 10.213H50.185C50.1759 10.2221 50.1622 10.2267 50.144 10.2267C50.1258 10.2267 50.1167 10.2312 50.1167 10.2403V10.254C50.1167 10.2631 50.1075 10.2768 50.0893 10.295C50.0711 10.3041 50.062 10.3133 50.062 10.3224C50.0437 10.3406 50.021 10.3679 49.9936 10.4044C49.9663 10.4317 49.948 10.4545 49.9389 10.4728V10.4864C49.9298 10.4864 49.9252 10.491 49.9252 10.5001C49.9252 10.5092 49.9161 10.5274 49.8979 10.5548C49.8888 10.573 49.8797 10.5867 49.8706 10.5958C49.8614 10.6049 49.8295 10.6824 49.7749 10.8282C49.6837 11.0652 49.6245 11.2475 49.5971 11.3751C49.588 11.3933 49.5789 11.4207 49.5698 11.4571C49.5698 11.4845 49.5698 11.5073 49.5698 11.5255C49.5698 11.5346 49.5652 11.5483 49.5561 11.5665C49.5561 11.5847 49.5561 11.5984 49.5561 11.6075C49.547 11.644 49.5379 11.6987 49.5288 11.7716C49.5196 11.8354 49.5151 11.881 49.5151 11.9083C49.4969 12.0541 49.4877 12.2729 49.4877 12.5646C49.4877 12.6466 49.4969 12.7605 49.5151 12.9064V12.9474C49.5242 12.9747 49.5288 12.9929 49.5288 13.0021C49.5379 13.0203 49.5424 13.0476 49.5424 13.0841C49.5424 13.1114 49.547 13.1297 49.5561 13.1388C49.6017 13.3666 49.6609 13.5763 49.7338 13.7677C49.7612 13.8224 49.7749 13.8588 49.7749 13.8771C49.784 13.8862 49.7931 13.8998 49.8022 13.9181C49.8113 13.9363 49.8204 13.9545 49.8295 13.9728C49.866 14.0366 49.9207 14.1231 49.9936 14.2325L50.0073 14.2599L50.2807 14.5333Z" fill="white"/>
<path d="M66.8297 20.6173C66.8479 20.5626 66.8981 20.5489 66.9801 20.5763C67.0621 20.5945 67.0986 20.631 67.0895 20.6856C66.971 21.7612 66.5472 23.06 65.818 24.5821C65.0979 26.1043 64.3095 27.1114 63.4527 27.6036C63.3251 27.6856 63.1884 27.754 63.0426 27.8087L62.7965 27.8907C62.4593 27.9819 62.122 28.0001 61.7848 27.9454C61.4475 27.9181 61.1604 27.8588 60.9235 27.7677C60.1123 27.4396 59.4879 26.8745 59.0504 26.0724C58.4853 25.0242 58.2939 23.5294 58.4762 21.588C58.6494 19.7377 59.1096 18.1564 59.857 16.8439C60.0758 16.461 60.3401 16.1056 60.65 15.7774C60.9599 15.4493 61.3154 15.1668 61.7164 14.9298C62.1266 14.6837 62.5413 14.5652 62.9606 14.5743C63.3798 14.5743 63.8082 14.7156 64.2457 14.9981C64.829 15.4265 65.0432 16.1603 64.8883 17.1993C64.6878 18.5847 64.3779 19.6785 63.9586 20.4806C63.9495 20.5079 63.9267 20.5216 63.8902 20.5216C63.8629 20.5216 63.8356 20.5125 63.8082 20.4942C63.79 20.476 63.7854 20.4532 63.7945 20.4259C63.8492 20.2162 63.9039 19.9838 63.9586 19.7286C64.0224 19.4643 64.0908 19.1225 64.1637 18.7032C64.2366 18.2748 64.2731 17.8829 64.2731 17.5274C64.2822 17.1629 64.2594 16.8211 64.2047 16.5021C64.1591 16.183 64.0361 15.9552 63.8356 15.8185C63.635 15.6726 63.3753 15.6453 63.0563 15.7364C62.1357 16.0008 61.3701 16.9897 60.7594 18.7032C60.3492 19.8334 60.0804 21.0548 59.9527 22.3673C59.8251 23.6616 59.8662 24.7462 60.0758 25.6212C60.2763 26.0952 60.5133 26.478 60.7867 26.7696C60.8596 26.8425 60.9371 26.9064 61.0192 26.961C61.2197 27.0978 61.4475 27.1843 61.7027 27.2208C61.958 27.2481 62.1676 27.2481 62.3317 27.2208C62.4957 27.1843 62.7327 27.1251 63.0426 27.0431H63.0563C63.3388 26.961 63.6259 26.7833 63.9176 26.5099C64.0999 26.3276 64.232 26.1863 64.3141 26.086C64.3961 25.9949 64.51 25.8582 64.6559 25.6759C64.8929 25.3295 65.1389 24.9103 65.3942 24.4181C65.6311 23.9532 65.9 23.2787 66.2008 22.3946C66.5016 21.5105 66.7112 20.9181 66.8297 20.6173Z" fill="white"/>
<path d="M75.8865 20.5216C75.923 20.4851 75.9685 20.4715 76.0232 20.4806C76.087 20.4897 76.1326 20.517 76.1599 20.5626C76.1873 20.5991 76.1873 20.6401 76.1599 20.6856C75.6039 21.3966 74.7335 21.907 73.5486 22.2169C73.5213 22.7 73.4666 23.1648 73.3845 23.6114C73.2387 24.4773 73.0336 25.2384 72.7693 25.8946C72.505 26.5418 72.0994 27.0704 71.5525 27.4806C70.9418 27.9181 70.2537 28.0685 69.4881 27.9317C68.7315 27.7859 68.13 27.4168 67.6834 26.8243C66.936 25.8399 66.6215 24.2768 66.74 22.1349C66.7856 21.2325 66.8904 20.4031 67.0545 19.6466C66.9177 19.1909 66.8722 18.6987 66.9177 18.17C66.9542 17.687 67.059 17.2039 67.2322 16.7208C67.4054 16.2377 67.6332 15.7957 67.9158 15.3946C68.2075 14.9845 68.5812 14.6883 69.0369 14.506C69.5017 14.3146 69.9985 14.2918 70.5271 14.4376C70.9646 14.5561 71.3565 14.7703 71.7029 15.0802C72.0493 15.3901 72.3318 15.7547 72.5506 16.1739C72.7784 16.5932 72.9607 17.017 73.0974 17.4454C73.2342 17.8738 73.3344 18.3159 73.3982 18.7716C73.544 19.7651 73.6033 20.7175 73.576 21.629C74.5877 21.4011 75.3579 21.032 75.8865 20.5216ZM69.6658 15.0939C69.1827 15.2123 68.7817 15.4903 68.4627 15.9278C68.1528 16.3562 67.9295 16.8666 67.7927 17.4591C67.7927 17.45 67.7973 17.4409 67.8064 17.4317C67.8155 17.4226 67.8201 17.4135 67.8201 17.4044C67.9204 17.213 68.0935 17.1173 68.3396 17.1173C68.5948 17.1082 68.809 17.1856 68.9822 17.3497C69.1645 17.5047 69.2146 17.687 69.1326 17.8966C68.8045 18.6804 68.572 19.6329 68.4353 20.754C68.7908 21.1368 69.242 21.4194 69.7888 21.6017C70.5089 21.8295 71.3429 21.907 72.2908 21.8341C72.4093 20.6765 72.4093 19.5873 72.2908 18.5665C72.2452 18.2019 72.1632 17.8191 72.0447 17.4181C71.9262 17.017 71.7667 16.6114 71.5662 16.2013C71.3657 15.7911 71.0968 15.4812 70.7595 15.2716C70.4314 15.0528 70.0668 14.9936 69.6658 15.0939ZM71.0193 25.9903C71.5662 25.3067 71.9627 24.1492 72.2088 22.5177C72.2088 22.5086 72.2088 22.4949 72.2088 22.4767C72.2179 22.4584 72.2224 22.4448 72.2224 22.4356C70.7094 22.545 69.4607 22.2716 68.4763 21.6153C68.4581 21.6062 68.4353 21.5925 68.408 21.5743C68.3806 21.547 68.3624 21.5287 68.3533 21.5196L68.3123 22.381C68.2485 24.4044 68.5174 25.7442 69.1189 26.4005C69.2465 26.5372 69.365 26.6192 69.4744 26.6466C69.6293 26.6739 69.725 26.6876 69.7615 26.6876H69.9256C70.3448 26.6238 70.7094 26.3914 71.0193 25.9903Z" fill="white"/>
<path d="M94.787 20.5489C94.8053 20.4942 94.8509 20.4806 94.9238 20.5079C95.0058 20.5353 95.0423 20.5763 95.0331 20.631C94.9238 21.7794 94.5136 23.2241 93.8027 24.9649C93.3925 25.9402 92.9778 26.6739 92.5585 27.1661C91.8932 27.9682 91.2232 28.1368 90.5488 27.672C90.2115 27.435 89.9381 27.0841 89.7285 26.6192C89.5279 26.1544 89.3958 25.7442 89.332 25.3888C89.2682 25.0242 89.2135 24.573 89.1679 24.0353C89.0403 22.7228 89.054 20.9181 89.2089 18.6212C89.2727 17.4181 89.3046 16.6935 89.3046 16.4474C89.3046 16.3015 89.2955 16.1284 89.2773 15.9278C89.1223 16.0646 88.9355 16.2879 88.7167 16.5978C88.1607 17.4272 87.6367 18.366 87.1445 19.4142C86.8528 20.0431 86.5475 20.7495 86.2285 21.5333C85.9186 22.3172 85.6679 22.9597 85.4765 23.461C85.2851 23.9532 85.0071 24.7006 84.6425 25.7032C84.287 26.6967 84.0455 27.3666 83.9179 27.713C83.9361 27.8588 83.8814 27.9591 83.7538 28.0138C83.6354 28.0685 83.4986 28.0639 83.3437 28.0001C83.1979 27.9454 83.1113 27.8543 83.0839 27.7267C82.6555 25.9402 82.537 23.5795 82.7285 20.6446C82.8378 19.0952 82.9016 17.9285 82.9199 17.1446C82.9381 16.6707 82.929 16.2651 82.8925 15.9278C82.6738 16.1284 82.4778 16.3608 82.3046 16.6251C81.6848 17.5366 81.1516 18.4662 80.705 19.4142C80.5045 19.8334 80.2994 20.2846 80.0898 20.7677C79.8893 21.2508 79.7161 21.67 79.5703 22.0255C79.4244 22.3718 79.2376 22.8458 79.0097 23.4474C78.7818 24.0398 78.6223 24.4591 78.5312 24.7052C78.44 24.9513 78.2623 25.4298 77.998 26.1407C77.7428 26.8425 77.5833 27.28 77.5195 27.4532C77.5286 27.6355 77.4785 27.7768 77.3691 27.8771C77.3691 27.8862 77.3645 27.8998 77.3554 27.9181C77.3463 27.9545 77.3098 27.9636 77.246 27.9454C77.0364 28.0548 76.7766 28.0548 76.4667 27.9454C76.1568 27.836 75.97 27.6583 75.9062 27.4122C75.8242 27.1023 75.7831 26.5554 75.7831 25.7716C75.7831 24.9422 75.8059 24.0125 75.8515 22.9825C75.8788 22.2442 75.9335 21.0047 76.0156 19.2638C76.0976 17.5138 76.1523 16.1694 76.1796 15.2306C76.1887 14.9571 76.33 14.7931 76.6035 14.7384C76.8769 14.6746 77.1458 14.7202 77.4101 14.8751C77.6744 15.03 77.802 15.2351 77.7929 15.4903C77.7656 16.4565 77.7109 17.8237 77.6288 19.5919C77.5559 21.351 77.5104 22.5131 77.4921 23.0782C77.4466 24.1264 77.4238 25.0743 77.4238 25.922C77.4238 26.1225 77.4329 26.4324 77.4511 26.8517V27.0294C78.5904 23.5294 79.6249 20.6173 80.5546 18.2931C81.065 16.9988 81.5071 16.0554 81.8808 15.463C82.3092 14.7885 82.7923 14.5105 83.33 14.629C83.3391 14.629 83.3437 14.629 83.3437 14.629L83.371 14.6427C83.4895 14.6609 83.5943 14.7019 83.6855 14.7657L83.7402 14.8204C83.7766 14.8478 83.8222 14.8888 83.8769 14.9435C84.1959 15.2807 84.3736 15.905 84.4101 16.8165C84.4466 17.6004 84.4101 18.7579 84.3007 20.2892C84.2551 20.8907 84.1275 22.2442 83.9179 24.3497C83.7812 25.6896 83.7584 26.6785 83.8495 27.3165C85.0436 23.5704 86.0872 20.5626 86.9804 18.2931C87.5273 16.8985 87.9602 15.9506 88.2792 15.4493C88.6894 14.7931 89.1634 14.5196 89.7011 14.629C89.7193 14.629 89.7467 14.6381 89.7831 14.6564C89.8743 14.6655 89.9654 14.7019 90.0566 14.7657C90.1933 14.866 90.3118 14.9845 90.412 15.1212C90.5214 15.2579 90.5989 15.4265 90.6445 15.6271C90.6992 15.8185 90.7447 15.9871 90.7812 16.1329C90.8176 16.2696 90.8359 16.4702 90.8359 16.7345C90.8359 16.9897 90.8359 17.172 90.8359 17.2814C90.8359 17.3816 90.8268 17.5776 90.8085 17.8692C90.7903 18.1518 90.7812 18.3113 90.7812 18.3478C90.7447 18.9493 90.6673 19.8106 90.5488 20.9317C90.4303 22.0528 90.3528 22.8549 90.3163 23.338C90.2434 24.3406 90.2343 25.0971 90.289 25.6075C90.371 26.3549 90.5351 26.8745 90.7812 27.1661C90.9817 27.4213 91.1959 27.5034 91.4238 27.4122C91.7154 27.3028 92.0436 27.0066 92.4081 26.5235C92.8001 25.9949 93.1282 25.407 93.3925 24.7599C93.6568 24.1127 93.9166 23.3517 94.1718 22.4767C94.4361 21.5925 94.6412 20.95 94.787 20.5489Z" fill="white"/>
<path d="M128.617 22.504C129.693 23.4975 130.509 24.573 131.065 25.7306C131.63 26.879 131.762 28.0593 131.461 29.2716C131.178 30.4018 130.536 31.3771 129.533 32.1974C128.54 33.0177 127.41 33.642 126.143 34.0704C123.782 34.8543 121.339 34.8816 118.815 34.1524C117.666 33.8152 116.627 33.3002 115.697 32.6075C114.768 31.9148 114.034 31.0672 113.496 30.0646C112.986 29.1075 112.721 28.114 112.703 27.0841C112.685 26.0541 112.94 25.0652 113.469 24.1173C113.496 24.0717 113.537 24.0489 113.592 24.0489C113.656 24.0489 113.706 24.0672 113.742 24.1036C113.788 24.1401 113.802 24.1856 113.783 24.2403C113.218 25.4981 113.077 26.7879 113.359 28.1095C113.642 29.4402 114.28 30.5841 115.274 31.5411C116.276 32.5164 117.488 33.1772 118.91 33.5235C120.332 33.879 121.79 33.9474 123.285 33.7286C124.142 33.6101 124.967 33.3959 125.76 33.086C126.562 32.7761 127.323 32.3295 128.043 31.7462C128.763 31.172 129.296 30.5157 129.643 29.7774C129.88 29.2761 130.007 28.7612 130.025 28.2325C130.044 27.7039 129.98 27.2071 129.834 26.7423C129.688 26.2774 129.465 25.8126 129.164 25.3478C128.872 24.8829 128.558 24.4636 128.221 24.0899C127.893 23.7162 127.524 23.3471 127.113 22.9825C126.421 22.3718 125.304 21.5424 123.764 20.4942C122.223 19.4461 121.102 18.6075 120.4 17.9786C119.334 17.0216 118.491 15.9415 117.871 14.7384C117.251 13.5261 116.928 12.2455 116.9 10.8966C116.864 8.99164 117.461 7.20974 118.691 5.55088C118.363 5.36859 117.803 5.05414 117.01 4.60752C116.217 4.16091 115.602 3.82367 115.164 3.5958C114.736 3.35882 114.184 3.08083 113.51 2.76182C112.835 2.43369 112.188 2.16481 111.568 1.95518C110.958 1.74554 110.338 1.57237 109.709 1.43565C106.893 0.834085 104.414 1.08018 102.272 2.17393C101.287 2.67523 100.412 3.32692 99.6466 4.12901C98.8901 4.93109 98.3158 5.82888 97.9239 6.82237C97.6049 7.61533 97.4363 8.45388 97.4181 9.33799C97.4089 10.213 97.5457 11.0561 97.8282 11.8673C98.1108 12.6694 98.4981 13.4031 98.9903 14.0685C99.4916 14.7338 100.125 15.2761 100.891 15.6954C101.656 16.1147 102.486 16.3471 103.379 16.3927C104.537 16.4565 105.662 16.2377 106.756 15.7364C107.859 15.2351 108.802 14.5333 109.586 13.631C110.962 12.0268 111.669 9.78916 111.705 6.91807C111.714 6.61729 111.887 6.45323 112.225 6.42588C112.571 6.39854 112.854 6.50336 113.072 6.74033C113.2 6.86794 113.259 7.01377 113.25 7.17783C113.15 8.47211 112.826 9.73903 112.279 10.9786C111.733 12.2091 111.022 13.2983 110.147 14.2462C109.281 15.1941 108.233 15.9324 107.002 16.461C105.772 16.9806 104.486 17.1765 103.147 17.0489C101.761 16.9122 100.522 16.3927 99.4278 15.4903C98.3341 14.588 97.5365 13.4715 97.0352 12.1407C96.5339 10.81 96.3927 9.46104 96.6114 8.09385C96.7937 6.97276 97.1902 5.92914 97.8009 4.96299C98.4115 3.98773 99.1544 3.17198 100.029 2.51573C100.904 1.85948 101.875 1.33539 102.941 0.94346C104.017 0.551533 105.115 0.332783 106.236 0.28721C108.67 0.186949 111.249 0.752053 113.975 1.98252C114.695 2.31065 115.716 2.83474 117.037 3.55479C118.368 4.27484 119.129 4.685 119.32 4.78526C119.576 4.51182 119.772 4.3113 119.908 4.18369C120.884 3.26312 121.968 2.53851 123.162 2.00987C124.867 1.24424 126.243 1.06195 127.291 1.46299C127.856 1.69086 128.33 2.09645 128.713 2.67979C129.059 3.08083 129.296 3.60036 129.424 4.23838C129.552 4.86729 129.547 5.43239 129.41 5.93369C129.292 6.45323 129.055 6.91351 128.699 7.31455C128.353 7.70648 127.929 7.9708 127.428 8.10752C127.127 8.18955 126.808 8.23513 126.471 8.24424C126.143 8.25336 125.792 8.22601 125.418 8.16221C125.053 8.08929 124.739 8.02093 124.475 7.95713C124.219 7.88421 123.896 7.78851 123.504 7.67002C122.383 7.33278 121.262 6.87705 120.141 6.30283C119.102 7.73382 118.568 9.23773 118.541 10.8146C118.496 13.3758 119.676 15.659 122.082 17.6642C122.684 18.1655 123.741 18.9311 125.254 19.961C126.776 20.991 127.897 21.8386 128.617 22.504ZM121.863 4.48448C121.444 4.83083 121.084 5.17263 120.783 5.50987C122.123 6.13877 123.331 6.57627 124.406 6.82237C124.78 6.9044 125.067 6.96364 125.268 7.0001C125.477 7.03656 125.746 7.0639 126.074 7.08213C126.412 7.09125 126.708 7.04567 126.963 6.94541C127.218 6.83604 127.441 6.67198 127.633 6.45323C127.943 6.10687 128.162 5.64658 128.289 5.07237C128.417 4.49815 128.394 3.9376 128.221 3.39073C128.048 2.84385 127.715 2.47471 127.223 2.2833C127.214 2.27419 127.2 2.26507 127.182 2.25596C127.173 2.24685 127.164 2.24229 127.154 2.24229C126.744 2.1238 126.266 2.14658 125.719 2.31065C124.443 2.69346 123.158 3.41807 121.863 4.48448Z" fill="white"/>
<path d="M135.24 17.8692C135.186 18.6531 135.095 19.7286 134.967 21.0958C134.785 23.0737 134.794 24.5776 134.994 25.6075C135.049 25.8627 135.127 26.1271 135.227 26.4005C135.336 26.6739 135.496 26.9291 135.705 27.1661C135.924 27.394 136.156 27.4851 136.403 27.4396C136.63 27.4031 136.858 27.2755 137.086 27.0567C137.323 26.838 137.496 26.642 137.606 26.4689C137.724 26.2866 137.865 26.0541 138.03 25.7716C138.394 25.1245 138.786 24.1355 139.205 22.8048C139.625 21.4649 139.866 20.713 139.93 20.5489C139.948 20.4942 139.994 20.4806 140.067 20.5079C140.149 20.5261 140.185 20.5626 140.176 20.6173C140.085 21.5925 139.748 22.8549 139.164 24.4044C138.827 25.2976 138.467 26.0359 138.084 26.6192C137.51 27.476 136.959 27.9135 136.43 27.9317C135.938 27.95 135.5 27.7586 135.117 27.3575C134.735 26.9565 134.438 26.4871 134.229 25.9493C133.481 23.9715 133.276 21.3328 133.614 18.0333L133.655 16.4337C133.655 16.4064 133.737 14.7202 133.901 11.3751C133.919 11.0379 133.946 10.5366 133.983 9.87119C134.028 9.19671 134.06 8.69541 134.078 8.36729C132.31 7.72015 130.834 7.59711 129.649 7.99815C128.956 8.22601 128.35 8.63161 127.83 9.21494C127.703 9.35166 127.584 9.51117 127.475 9.69346C127.356 9.86664 127.265 10.0216 127.201 10.1583C127.128 10.2859 127.042 10.4636 126.942 10.6915C126.841 10.9103 126.759 11.0789 126.696 11.1974C126.632 11.3159 126.527 11.3523 126.381 11.3067C126.235 11.2612 126.162 11.1746 126.162 11.047C126.153 10.3998 126.39 9.76638 126.873 9.14658C127.356 8.52679 127.912 8.04828 128.541 7.71104C129.826 7.01833 131.408 6.9363 133.285 7.46494C133.65 7.57432 133.923 7.66091 134.106 7.72471C134.17 6.67653 134.274 5.10427 134.42 3.00791C134.429 2.85296 134.484 2.72992 134.584 2.63877C134.694 2.54763 134.821 2.4975 134.967 2.48838C135.113 2.47927 135.259 2.4975 135.405 2.54307C135.559 2.58864 135.696 2.66612 135.815 2.77549C135.933 2.87575 136.006 2.98968 136.033 3.11729C136.043 3.1264 136.047 3.14007 136.047 3.1583C136.056 3.75075 136.02 4.84906 135.938 6.45323C135.91 6.90895 135.878 7.56065 135.842 8.4083C137.091 8.92783 138.034 9.26052 138.672 9.40635C140.614 9.87119 142.395 9.53395 144.018 8.39463C144.109 8.33083 144.218 8.34906 144.346 8.44932C144.446 8.53135 144.455 8.60427 144.373 8.66807C143.088 9.77093 141.634 10.2859 140.012 10.213C138.955 10.1765 137.551 9.79372 135.801 9.06455C135.591 13.2026 135.409 16.1329 135.254 17.8556L135.24 17.8692Z" fill="white"/>
<path d="M150.778 20.6173C150.595 21.8386 150.012 23.3106 149.028 25.0333C148.526 25.8901 148.002 26.7149 147.455 27.5079C147.319 30.6798 147.127 33.2091 146.881 35.0958C146.69 36.5633 146.43 37.5932 146.102 38.1856C145.92 38.5138 145.687 38.7553 145.405 38.9103C145.122 39.0743 144.835 39.0925 144.543 38.9649C144.398 38.9194 144.306 38.8875 144.27 38.8692C143.65 38.5047 143.153 38.1036 142.78 37.6661C142.415 37.2377 142.219 36.7228 142.192 36.1212C142.155 35.2827 142.502 34.2071 143.231 32.8946C143.741 31.9923 144.557 30.7573 145.678 29.1896C145.715 28.7156 145.737 28.3601 145.747 28.1231C145.81 26.9291 145.892 25.2338 145.993 23.0372C146.093 20.8315 146.166 19.3002 146.211 18.4435C146.056 19.2273 145.824 20.2527 145.514 21.5196C145.295 22.4402 145.131 23.101 145.022 23.5021C144.922 23.9031 144.739 24.4682 144.475 25.1974C144.211 25.9265 143.919 26.5418 143.6 27.0431C143.135 27.7814 142.634 28.0639 142.096 27.8907C142.06 27.8816 142.023 27.8588 141.987 27.8224C141.248 27.5034 140.733 26.8699 140.442 25.922C140.123 24.8647 139.931 23.6707 139.868 22.3399C139.831 21.6199 139.845 20.8634 139.909 20.0704C139.963 19.2683 140.05 18.366 140.168 17.3634C140.287 16.3517 140.364 15.5906 140.401 15.0802C140.419 14.8341 140.542 14.6883 140.77 14.6427C141.007 14.588 141.239 14.6336 141.467 14.7794C141.704 14.9161 141.823 15.0939 141.823 15.3126C141.85 16.1785 141.768 17.4409 141.577 19.0997C141.394 20.7586 141.294 21.6974 141.276 21.9161C141.267 21.989 141.248 22.2123 141.221 22.586C141.194 22.9506 141.176 23.2013 141.166 23.338C141.166 23.4656 141.157 23.6752 141.139 23.9669C141.13 24.2495 141.13 24.5001 141.139 24.7189C141.148 24.9376 141.166 25.1564 141.194 25.3751C141.303 26.4689 141.65 27.157 142.233 27.4396C142.242 27.4396 142.256 27.4441 142.274 27.4532C142.31 27.4715 142.338 27.476 142.356 27.4669C142.447 27.4396 142.543 27.3894 142.643 27.3165C142.761 27.2254 142.875 27.1205 142.985 27.0021C143.094 26.8836 143.194 26.7377 143.286 26.5646C143.386 26.3914 143.468 26.2501 143.532 26.1407C143.605 26.0222 143.682 25.8491 143.764 25.6212C143.855 25.3933 143.914 25.2384 143.942 25.1564C143.978 25.0652 144.038 24.892 144.12 24.6368C144.211 24.3816 144.261 24.2358 144.27 24.1993C144.653 23.0691 145.081 21.3966 145.555 19.1817C146.038 16.9669 146.316 15.7182 146.389 15.4356C146.389 15.2807 146.394 15.1668 146.403 15.0939C146.421 14.8295 146.558 14.6746 146.813 14.629C147.068 14.5743 147.319 14.6199 147.565 14.7657C147.811 14.9116 147.929 15.103 147.92 15.3399C147.92 15.4129 147.811 18.17 147.592 23.6114C147.574 23.9578 147.551 24.4773 147.524 25.17C147.506 25.8536 147.492 26.3686 147.483 26.7149C149.169 24.3543 150.217 22.308 150.627 20.5763C150.627 20.558 150.641 20.5489 150.668 20.5489C150.696 20.5398 150.719 20.5444 150.737 20.5626C150.764 20.5808 150.778 20.5991 150.778 20.6173ZM145.391 33.2228C145.455 32.5027 145.532 31.4682 145.623 30.1192C144.885 31.1856 144.32 32.0834 143.928 32.8126C143.208 34.1251 142.857 35.1915 142.875 36.0118C142.885 36.4858 143.035 36.8959 143.327 37.2423C143.618 37.5886 143.997 37.8302 144.461 37.9669L144.475 37.9532C144.493 37.9168 144.521 37.8803 144.557 37.8438C144.666 37.6433 144.78 37.2833 144.899 36.7638C145.081 36.0164 145.245 34.836 145.391 33.2228Z" fill="white"/>
<path d="M156.813 20.5489C156.831 20.4942 156.877 20.4806 156.95 20.5079C157.032 20.5261 157.068 20.5626 157.059 20.6173C156.968 21.5652 156.64 22.8048 156.075 24.336C155.747 25.2293 155.387 25.9721 154.995 26.5646C154.457 27.4031 153.906 27.8543 153.34 27.9181C152.857 27.9728 152.424 27.8224 152.042 27.4669C151.659 27.1023 151.376 26.6739 151.194 26.1817C150.747 24.9422 150.506 23.256 150.469 21.1231C150.442 20.075 150.492 18.8673 150.62 17.5001V17.3224C150.611 16.5476 150.642 15.6726 150.715 14.6974C150.962 11.2612 151.463 8.27614 152.219 5.74229C152.283 5.54177 152.329 5.39138 152.356 5.29112C152.383 5.19086 152.434 5.02679 152.506 4.79893C152.588 4.56195 152.657 4.37966 152.712 4.25205C152.775 4.11533 152.853 3.94216 152.944 3.73252C153.044 3.51377 153.14 3.34515 153.231 3.22666C153.322 3.09906 153.427 2.95778 153.545 2.80283C153.673 2.63877 153.801 2.51573 153.928 2.43369C154.065 2.35166 154.206 2.27875 154.352 2.21494C154.507 2.14203 154.671 2.11013 154.844 2.11924C155.027 2.11924 155.213 2.15114 155.405 2.21494C155.46 2.22406 155.51 2.24685 155.555 2.2833C155.929 2.44737 156.184 2.71625 156.321 3.08994C156.439 3.41807 156.471 3.89658 156.417 4.52549C156.325 5.42783 156.047 6.79502 155.583 8.62705C155.227 10.0672 154.758 11.808 154.174 13.8497C153.691 15.5177 153.172 17.172 152.616 18.8126C152.306 19.7058 152.096 20.2937 151.987 20.5763C151.978 20.6583 151.964 20.7905 151.946 20.9728C151.937 21.155 151.928 21.2872 151.919 21.3692C151.782 22.9916 151.741 24.1446 151.795 24.8282C151.823 25.211 151.878 25.5665 151.96 25.8946C152.06 26.323 152.228 26.7058 152.465 27.0431C152.702 27.3803 152.989 27.4988 153.327 27.3985C153.864 27.2254 154.402 26.6648 154.94 25.7169C155.305 25.0698 155.692 24.0854 156.102 22.7638C156.521 21.4422 156.758 20.7039 156.813 20.5489ZM154.94 8.68174C155.213 7.12315 155.314 5.76963 155.241 4.62119C155.223 4.32041 155.182 4.02875 155.118 3.74619C154.935 3.80088 154.781 3.91481 154.653 4.08799C154.58 4.20648 154.507 4.34776 154.434 4.51182C154.297 4.79437 154.147 5.14984 153.983 5.57823C153.527 6.89984 153.117 8.93239 152.753 11.6759C152.698 12.0496 152.529 13.5489 152.247 16.1739C152.219 17.131 152.16 18.2612 152.069 19.5646C152.124 19.4005 152.238 19.0405 152.411 18.4845C153.577 14.866 154.42 11.5984 154.94 8.68174ZM155.049 3.55479L155.036 3.56846H155.063L155.049 3.55479Z" fill="white"/>
<path d="M165.022 20.6173C165.04 20.5626 165.091 20.5489 165.173 20.5763C165.255 20.5945 165.291 20.631 165.282 20.6856C165.163 21.7612 164.74 23.06 164.01 24.5821C163.3 26.0952 162.511 27.1023 161.645 27.6036C161.518 27.6856 161.381 27.754 161.235 27.8087C161.208 27.8178 161.162 27.8315 161.098 27.8497C161.044 27.8679 161.003 27.8816 160.975 27.8907C160.638 27.9819 160.305 28.0001 159.977 27.9454C159.64 27.9181 159.353 27.8588 159.116 27.7677C158.305 27.4396 157.68 26.8745 157.243 26.0724C156.678 25.0242 156.486 23.5294 156.669 21.588C156.842 19.7377 157.302 18.1564 158.05 16.8439C158.268 16.461 158.533 16.1056 158.843 15.7774C159.152 15.4493 159.512 15.1668 159.923 14.9298C160.333 14.6837 160.747 14.5652 161.167 14.5743C161.586 14.5743 162.014 14.7156 162.452 14.9981C162.871 15.2989 163.113 15.7866 163.176 16.461C163.313 16.8621 163.391 17.2039 163.409 17.4864C163.491 18.3432 163.386 19.3458 163.094 20.4942C162.812 21.6062 162.352 22.4083 161.714 22.9005C161.367 23.1284 161.012 23.2241 160.647 23.1876C160.292 23.1511 159.95 23.0144 159.622 22.7774C159.002 22.3217 158.578 21.7293 158.35 21.0001C158.241 21.5925 158.173 22.0483 158.145 22.3673C158.018 23.6524 158.059 24.7325 158.268 25.6075C158.478 26.0997 158.715 26.4871 158.979 26.7696C159.052 26.8425 159.13 26.9064 159.212 26.961C159.412 27.0978 159.64 27.1843 159.895 27.2208C160.15 27.2481 160.36 27.2481 160.524 27.2208C160.688 27.1843 160.925 27.1251 161.235 27.0431H161.249C161.531 26.961 161.818 26.7833 162.11 26.5099C162.292 26.3276 162.425 26.1863 162.507 26.086C162.589 25.9949 162.703 25.8582 162.848 25.6759C163.085 25.3295 163.331 24.9103 163.587 24.4181C163.824 23.9532 164.093 23.2787 164.393 22.3946C164.694 21.5105 164.904 20.9181 165.022 20.6173ZM158.952 18.7032C158.77 19.2136 158.615 19.756 158.487 20.3302C158.824 21.506 159.362 22.2442 160.1 22.545C160.237 22.6271 160.374 22.6544 160.51 22.6271C160.647 22.5906 160.766 22.5541 160.866 22.5177C160.975 22.4812 161.08 22.4037 161.18 22.2853C161.29 22.1577 161.381 22.0392 161.454 21.9298C161.536 21.8204 161.613 21.6837 161.686 21.5196C161.759 21.3465 161.818 21.1961 161.864 21.0685C161.919 20.9317 161.969 20.7814 162.014 20.6173C162.06 20.4532 162.096 20.3211 162.124 20.2208C162.151 20.1114 162.178 19.9975 162.206 19.879C162.388 19.0769 162.466 18.2748 162.438 17.4728C162.42 17.1173 162.379 16.8256 162.315 16.5978C162.197 16.2058 162.037 15.9096 161.837 15.7091C161.654 15.6635 161.458 15.6726 161.249 15.7364C160.337 15.9916 159.572 16.9806 158.952 18.7032Z" fill="white"/>
</svg>
