<svg width="1123" height="50" viewBox="0 0 1123 50" fill="none" xmlns="http://www.w3.org/2000/svg">
<path d="M1031 25H79V28H1031V25Z" fill="#F1AB3C" fill-opacity="0.8"/>
<path d="M141.541 15.1152C138.841 11.3478 134.686 8.814 130.308 7.91384C125.886 6.98033 121.42 8.02474 117.531 10.1807C109.542 14.3148 103.942 22.3386 94.6094 26.9172C89.9095 29.1399 84.3319 30.0734 78.8543 28.3509C76.1544 27.4285 73.5544 25.7948 71.7212 23.2832C69.9212 20.8161 69.0324 17.8488 68.9657 14.9483C68.8879 12.0366 69.599 9.06958 71.1989 6.49132C72.7878 3.91306 75.3877 1.84603 78.2099 0.956973C81.032 0.0123523 84.0097 0.0455725 86.7429 0.834608C88.0985 1.27914 89.3984 1.84579 90.5651 2.65705C91.665 3.53499 92.5317 4.91324 92.2317 6.76915C90.3317 6.9025 89.3429 6.8025 88.4096 6.50244C87.5096 6.16905 86.5874 5.94669 85.643 5.85779C83.7652 5.66887 81.8875 5.94662 80.2765 6.61341C77.0543 7.83586 75.1322 11.1032 75.2322 14.7595C75.3099 18.4157 77.3654 21.4162 80.8542 22.7498C84.3097 24.1389 88.754 23.8723 92.5983 22.3054C100.654 19.1714 107.087 11.4367 116.175 7.33593C120.664 5.31333 126.02 4.56858 130.775 6.05775C135.508 7.46912 139.641 10.592 142.075 14.7372L141.541 15.1152Z" fill="#F1AB3C" fill-opacity="0.8"/>
<path d="M0 14.7817C2.43326 10.6364 6.57759 7.51357 11.2997 6.10219C16.0551 4.61303 21.4105 5.34639 25.8992 7.3801C34.9767 11.4809 41.4099 19.2159 49.4763 22.3498C53.3206 23.9168 57.7538 24.1945 61.2204 22.7942C64.7092 21.4606 66.7647 18.4601 66.8424 14.8039C66.9424 11.1477 65.0203 7.89142 61.7981 6.65785C60.1982 5.99106 58.3094 5.70219 56.4316 5.90223C55.4983 5.99114 54.565 6.21322 53.665 6.54661C52.7317 6.84667 51.7429 6.93583 49.843 6.81359C49.543 4.94657 50.4096 3.57944 51.5096 2.70149C52.6762 1.89023 53.9761 1.31246 55.3317 0.87905C58.0538 0.0900144 61.0426 0.0565229 63.8648 1.00114C66.6869 1.8902 69.2868 3.9575 70.8757 6.53576C72.4756 9.11402 73.1978 12.0811 73.1089 14.9927C73.0311 17.9044 72.1534 20.8605 70.3534 23.3276C68.5202 25.8392 65.9313 27.4729 63.2203 28.3953C57.7427 30.129 52.1651 29.1843 47.4652 26.9617C38.1433 22.383 32.5435 14.3592 24.5437 10.2251C20.6549 8.06918 16.1884 7.01339 11.7663 7.95801C7.38866 8.84706 3.23325 11.3808 0.533329 15.1593L0 14.7817Z" fill="#F1AB3C" fill-opacity="0.8"/>
<path d="M1.22168 22.6718C6.0882 18.6043 13.2435 17.4042 19.5989 19.4045C25.9098 21.4827 31.5096 26.9615 32.5207 34.3517C32.9429 38.0191 32.1319 41.8644 29.7653 45.0761C28.5653 46.6431 26.932 48.0321 24.921 48.8434C22.9432 49.6102 20.81 49.8103 18.7434 49.4769C16.6879 49.1213 14.6435 48.1988 13.0324 46.6652C11.4325 45.1761 10.2992 42.9312 10.0992 40.8419C9.85474 38.7193 10.2881 36.6523 11.2658 34.8298C11.7991 33.9407 12.4325 33.0959 13.2324 32.418C14.0991 31.8179 15.3879 31.5291 16.7212 32.5515C16.6545 34.2296 16.6879 34.8742 16.499 35.3966C16.2768 35.8633 16.1101 36.3521 16.0101 36.8633C15.799 37.8968 15.8434 38.9748 16.0657 39.9083C16.4545 41.7086 17.7878 42.92 19.7878 43.2979C21.8099 43.6091 23.6877 42.9978 25.1654 41.3531C26.6765 39.7417 27.5764 37.2191 27.5209 34.763C27.4431 29.7065 23.6099 24.5723 18.4767 22.3386C13.3546 19.9048 6.8215 20.0937 1.58832 23.1832L1.22168 22.6718Z" fill="#F1AB3C" fill-opacity="0.8"/>
<path d="M980.533 15.1152C983.233 11.3478 987.388 8.814 991.766 7.91384C996.188 6.98033 1000.65 8.02474 1004.54 10.1807C1012.53 14.3148 1018.13 22.3386 1027.46 26.9172C1032.16 29.1399 1037.74 30.0734 1043.22 28.3509C1045.92 27.4285 1048.52 25.7948 1050.35 23.2832C1052.15 20.8161 1053.04 17.8488 1053.11 14.9483C1053.19 12.0366 1052.48 9.06958 1050.88 6.49132C1049.29 3.91306 1046.69 1.84603 1043.86 0.956973C1041.04 0.0123523 1038.06 0.0455725 1035.33 0.834608C1033.98 1.27914 1032.68 1.84579 1031.51 2.65705C1030.41 3.53499 1029.54 4.91324 1029.84 6.76915C1031.74 6.9025 1032.73 6.8025 1033.66 6.50244C1034.56 6.16905 1035.49 5.94669 1036.43 5.85779C1038.31 5.66887 1040.19 5.94662 1041.8 6.61341C1045.02 7.83586 1046.94 11.1032 1046.84 14.7595C1046.76 18.4157 1044.71 21.4162 1041.22 22.7498C1037.76 24.1389 1033.32 23.8723 1029.48 22.3054C1021.42 19.1714 1014.99 11.4367 1005.9 7.33593C1001.41 5.31333 996.055 4.56858 991.299 6.05775C986.566 7.46912 982.433 10.592 980 14.7372L980.533 15.1152Z" fill="#F1AB3C" fill-opacity="0.8"/>
<path d="M1122.07 14.7817C1119.64 10.6364 1115.5 7.51357 1110.77 6.10219C1106.02 4.61303 1100.66 5.34639 1096.18 7.3801C1087.1 11.4809 1080.66 19.2159 1072.6 22.3498C1068.75 23.9168 1064.32 24.1945 1060.85 22.7942C1057.37 21.4606 1055.31 18.4601 1055.23 14.8039C1055.13 11.1477 1057.05 7.89142 1060.28 6.65785C1061.88 5.99106 1063.76 5.70219 1065.64 5.90223C1066.58 5.99114 1067.51 6.21322 1068.41 6.54661C1069.34 6.84667 1070.33 6.93583 1072.23 6.81359C1072.53 4.94657 1071.66 3.57944 1070.56 2.70149C1069.4 1.89023 1068.1 1.31246 1066.74 0.87905C1064.02 0.0900144 1061.03 0.0565229 1058.21 1.00114C1055.39 1.8902 1052.79 3.9575 1051.2 6.53576C1049.6 9.11402 1048.88 12.0811 1048.97 14.9927C1049.04 17.9044 1049.92 20.8605 1051.72 23.3276C1053.55 25.8392 1056.14 27.4729 1058.85 28.3953C1064.33 30.129 1069.91 29.1843 1074.61 26.9617C1083.93 22.383 1089.53 14.3592 1097.53 10.2251C1101.42 8.06918 1105.89 7.01339 1110.31 7.95801C1114.69 8.84706 1118.84 11.3808 1121.54 15.1593L1122.07 14.7817Z" fill="#F1AB3C" fill-opacity="0.8"/>
<path d="M1120.85 22.6718C1115.99 18.6043 1108.83 17.4042 1102.48 19.4045C1096.16 21.4827 1090.56 26.9615 1089.55 34.3517C1089.13 38.0191 1089.94 41.8644 1092.31 45.0761C1093.51 46.6431 1095.14 48.0321 1097.15 48.8434C1099.13 49.6102 1101.26 49.8103 1103.33 49.4769C1105.39 49.1213 1107.43 48.1988 1109.04 46.6652C1110.64 45.1761 1111.78 42.9312 1111.98 40.8419C1112.22 38.7193 1111.79 36.6523 1110.81 34.8298C1110.28 33.9407 1109.64 33.0959 1108.84 32.418C1107.98 31.8179 1106.69 31.5291 1105.35 32.5515C1105.42 34.2296 1105.39 34.8742 1105.58 35.3966C1105.8 35.8633 1105.96 36.3521 1106.06 36.8633C1106.28 37.8968 1106.23 38.9748 1106.01 39.9083C1105.62 41.7086 1104.29 42.92 1102.29 43.2979C1100.26 43.6091 1098.39 42.9978 1096.91 41.3531C1095.4 39.7417 1094.5 37.2191 1094.55 34.763C1094.63 29.7065 1098.46 24.5723 1103.6 22.3386C1108.72 19.9048 1115.25 20.0937 1120.49 23.1832L1120.85 22.6718Z" fill="#F1AB3C" fill-opacity="0.8"/>
</svg>
