<svg width="180" height="48" viewBox="0 0 180 48" fill="none" xmlns="http://www.w3.org/2000/svg">
<path d="M151.807 27.3519L136.495 33.8996L121.184 27.3519L136.495 20.8041L151.807 27.3519ZM136.495 32.8222L149.279 27.3519L136.495 21.8879L123.711 27.3519L136.495 32.8222Z" fill="#F1AB3C" fill-opacity="0.6"/>
<path d="M129.753 23.9336L129.195 24.7673L143.237 30.7764L143.801 29.9363L129.753 23.9336Z" fill="#F1AB3C" fill-opacity="0.6"/>
<path d="M143.237 23.9336L129.195 29.9363L129.753 30.7764L143.801 24.7673L143.237 23.9336Z" fill="#F1AB3C" fill-opacity="0.6"/>
<path d="M143.225 30.7699C149.068 33.3864 155.335 35.7272 162.09 36.4005C165.458 36.734 168.915 36.4839 172.103 35.5861C175.278 34.6947 178.197 33.0722 179.999 30.7955C178.114 33.0273 175.163 34.56 172.007 35.3616C168.838 36.1761 165.432 36.3364 162.173 35.9324C155.573 35.1115 149.524 32.6809 143.821 29.949L143.225 30.7699Z" fill="#F1AB3C" fill-opacity="0.6"/>
<path d="M143.821 24.7287C149.524 21.9967 155.573 19.5662 162.173 18.7453C165.438 18.3413 168.838 18.5017 172.007 19.3161C175.163 20.1177 178.114 21.6505 179.999 23.8822C178.197 21.6056 175.278 19.9831 172.103 19.0917C168.915 18.1938 165.458 17.9437 162.09 18.2772C155.342 18.9506 149.068 21.2914 143.225 23.9079L143.821 24.7287Z" fill="#F1AB3C" fill-opacity="0.6"/>
<path d="M122.327 26.89C108.952 29.1538 96.9377 36.0735 89.9971 45.4879C83.0501 36.0799 71.042 29.1538 57.6676 26.89L57.4238 27.8199C70.8046 30.0837 82.7935 37.1317 89.4775 46.6743L89.9971 47.4181L90.5166 46.6743C97.2006 37.1317 109.183 30.0837 122.57 27.8199L122.327 26.89Z" fill="#F1AB3C" fill-opacity="0.6"/>
<path d="M90.4902 0.59003C94.4224 5.2908 95.4103 9.5875 93.4346 13.3648C92.8316 14.5191 91.9528 15.6222 90.7982 16.674C96.1608 21.0605 106.803 24.4851 122.557 26.8836L122.332 27.8199C106.411 25.3957 95.5835 21.8877 89.9964 17.3665C84.4093 21.8877 73.575 25.3957 57.654 27.8199L57.4295 26.8836C73.1837 24.4851 83.8255 21.0541 89.1881 16.674C88.0399 15.6222 87.1611 14.5191 86.5518 13.3648C84.5761 9.5875 85.5639 5.2908 89.496 0.59003L89.99 0L90.4902 0.59003ZM92.3376 12.9929C94.0696 9.69014 93.2807 5.89998 89.9964 1.72508C86.7121 5.89998 85.9295 9.69014 87.655 12.9929C88.2003 14.0254 88.9765 15.0194 89.9964 15.9685C91.0163 15.0194 91.7924 14.0318 92.3376 12.9929Z" fill="#F1AB3C" fill-opacity="0.6"/>
<path d="M58.8097 27.3519L43.498 33.8996L28.1864 27.3519L43.498 20.8041L58.8097 27.3519ZM43.498 32.8222L56.2823 27.3519L43.498 21.8879L30.7137 27.3519L43.498 32.8222Z" fill="#F1AB3C" fill-opacity="0.6"/>
<path d="M50.2391 23.9336L36.1912 29.9363L36.7557 30.7764L50.8036 24.7673L50.2391 23.9336Z" fill="#F1AB3C" fill-opacity="0.6"/>
<path d="M36.7557 23.9336L36.1912 24.7673L50.2391 30.7764L50.8036 29.9363L36.7557 23.9336Z" fill="#F1AB3C" fill-opacity="0.6"/>
<path d="M36.1783 29.9426C30.4757 32.6746 24.4268 35.1052 17.8262 35.9261C14.5611 36.3301 11.1614 36.1697 7.99255 35.3553C4.83657 34.5537 1.88589 33.0209 0 30.7892C1.8025 33.0658 4.72117 34.6883 7.89639 35.5797C11.0844 36.4776 14.5419 36.7277 17.9096 36.3942C24.6577 35.7208 30.9311 33.38 36.7748 30.7635L36.1783 29.9426Z" fill="#F1AB3C" fill-opacity="0.6"/>
<path d="M50.5207 30.3593C53.7088 31.6804 56.9931 32.8668 60.4056 33.8224C63.8246 34.7395 67.4424 35.3616 71.1372 35.3038C74.8384 35.2654 78.4627 34.3162 81.6956 32.9438C84.9414 31.5586 87.8344 29.7501 90.5413 27.8198C93.1521 25.9087 95.9296 24.1323 98.9957 22.7791C102.055 21.4195 105.436 20.5666 108.926 20.3806C112.422 20.2075 115.956 20.6949 119.368 21.4772C122.807 22.2212 126.149 23.2857 129.478 24.3503C126.29 23.0228 123.006 21.8428 119.593 20.8808C116.174 19.9701 112.556 19.3417 108.861 19.3994C105.16 19.4379 101.536 20.3871 98.303 21.7595C95.0572 23.1447 92.1642 24.9467 89.4572 26.8835C86.8465 28.7946 84.069 30.571 81.0029 31.9241C77.9431 33.2837 74.5626 34.1367 71.0731 34.329C67.5771 34.5022 64.0427 34.0083 60.6301 33.2324C57.1919 32.4884 53.8563 31.4175 50.5207 30.3593Z" fill="white" fill-opacity="0.3"/>
<path d="M119.722 20.5795C122.942 21.4837 126.188 22.6253 129.658 24.0682L129.293 24.6326C129.286 24.6326 129.28 24.6262 129.273 24.6262C126.021 23.5873 122.66 22.5162 119.254 21.7787C115.392 20.8937 112.024 20.5346 108.945 20.695C105.584 20.8745 102.3 21.6697 99.1889 23.0549C96.5268 24.2285 93.8648 25.8126 90.8051 28.0571C87.5785 30.3594 84.7433 32.0011 81.8823 33.226C78.2324 34.778 74.621 35.5861 71.1443 35.6246C67.7831 35.6759 64.2486 35.1884 60.278 34.1303C57.0707 33.226 53.8185 32.091 50.3418 30.648L50.7075 30.0837C53.9661 31.1226 57.3337 32.2 60.7462 32.9375C64.6078 33.8225 67.9755 34.1816 71.0545 34.0213C74.4093 33.8418 77.6936 33.0465 80.8175 31.6549C83.4924 30.4749 86.1545 28.8908 89.2014 26.6526C92.4151 24.3568 95.2503 22.7086 98.124 21.4838C101.787 19.9318 105.398 19.1238 108.862 19.0853C109.029 19.0853 109.196 19.0789 109.356 19.0789C112.544 19.0789 115.944 19.5726 119.722 20.5795ZM60.9644 33.6365C64.672 34.592 68.0204 35.0346 71.1315 34.9833C74.4799 34.9448 77.9695 34.1688 81.5039 32.6618C84.3071 31.4625 87.0974 29.8528 90.2662 27.5826C93.3708 25.3124 96.0842 23.6962 98.7976 22.497C102.018 21.0669 105.411 20.246 108.888 20.0537C111.967 19.8997 115.328 20.2396 119.138 21.0926C115.386 20.1114 112.024 19.6753 108.862 19.7137C105.526 19.7458 102.031 20.5282 98.4897 22.0353C95.6737 23.2345 92.8898 24.8506 89.7274 27.1144C86.6355 29.3782 83.9286 30.9943 81.1959 32.2C77.9694 33.6365 74.5761 34.4574 71.0994 34.6434C70.6247 34.669 70.1436 34.6818 69.6561 34.6818C67.0133 34.6818 64.146 34.3355 60.9644 33.6365ZM50.5214 30.3594L50.3739 30.6545L50.5214 30.3594Z" fill="#F1AB3C" fill-opacity="0.6"/>
<path d="M50.5213 24.3504C53.8569 23.2858 57.1924 22.2212 60.6307 21.4773C64.0496 20.6949 67.5777 20.2076 71.0736 20.3807C74.5632 20.5667 77.9436 21.4261 81.0034 22.7856C84.076 24.1388 86.847 25.9152 89.4578 27.8263C92.1583 29.763 95.0577 31.5651 98.3035 32.9503C101.53 34.3227 105.161 35.2718 108.862 35.3103C112.557 35.368 116.168 34.746 119.593 33.8289C123.006 32.8669 126.29 31.6869 129.478 30.3594C126.143 31.424 122.807 32.4885 119.369 33.2324C115.95 34.0148 112.422 34.5023 108.926 34.3291C105.437 34.1431 102.056 33.2902 98.9963 31.9306C95.9237 30.5775 93.1526 28.8011 90.5419 26.89C87.8349 24.9597 84.9419 23.1511 81.6961 21.7659C78.4696 20.3935 74.839 19.4444 71.1378 19.4059C67.443 19.3482 63.8316 19.9702 60.4062 20.8873C56.9936 21.8428 53.7093 23.0293 50.5213 24.3504Z" fill="white" fill-opacity="0.3"/>
<path d="M71.1377 19.0853C74.6144 19.1238 78.2258 19.9254 81.8757 21.4838C84.7366 22.7022 87.5719 24.3504 90.7984 26.6526C93.8517 28.8908 96.5202 30.4813 99.1758 31.6484C102.293 33.0337 105.578 33.8289 108.932 34.0085C111.999 34.1624 115.379 33.8032 119.247 32.9182C122.647 32.1807 126.008 31.1098 129.318 30.058L129.645 30.6352C126.181 32.0781 122.929 33.2132 119.702 34.1239C115.738 35.182 112.185 35.6695 108.843 35.6182C105.372 35.5797 101.761 34.7781 98.0982 33.2197C95.2245 31.9948 92.3892 30.353 89.1755 28.0507C86.135 25.819 83.4729 24.2285 80.798 23.0549C77.6741 21.6697 74.3899 20.8745 71.0414 20.6885C67.9689 20.541 64.5948 20.8937 60.7268 21.7787C57.3271 22.5162 53.9594 23.5873 50.7072 24.6262L50.6559 24.6454L50.3223 24.0682C53.7926 22.6253 57.0448 21.4837 60.2649 20.5795C64.0303 19.5726 67.43 19.0789 70.6245 19.0789C70.8041 19.0853 70.9709 19.0853 71.1377 19.0853ZM71.1056 20.0601C74.5759 20.2461 77.9692 21.0669 81.1957 22.5034C83.9283 23.7027 86.6353 25.3188 89.7207 27.589C92.8831 29.8528 95.6735 31.4689 98.4831 32.6681C102.03 34.1752 105.52 34.9576 108.862 34.9896C112.011 35.0345 115.379 34.5921 119.119 33.6173C115.308 34.4638 111.96 34.8037 108.881 34.6498C105.404 34.4638 102.005 33.6429 98.7909 32.2128C96.0712 31.02 93.3642 29.4038 90.2595 27.1336C87.0843 24.8634 84.294 23.2474 81.4908 22.0545C77.9564 20.5475 74.4604 19.7715 71.112 19.733C67.9432 19.6881 64.6397 20.1242 60.932 21.0861C64.7231 20.2396 68.0522 19.9062 71.1056 20.0601Z" fill="#F1AB3C" fill-opacity="0.6"/>
<path d="M36.7748 23.9079C30.9311 21.2914 24.6641 18.9506 17.9096 18.2772C14.5419 17.9437 11.0844 18.1938 7.89639 19.0917C4.72117 19.9831 1.8025 21.6056 0 23.8822C1.88589 21.6505 4.83657 20.1177 7.99255 19.3161C11.1614 18.5017 14.5676 18.3413 17.8262 18.7453C24.4268 19.5662 30.4757 21.9967 36.1783 24.7287L36.7748 23.9079Z" fill="#F1AB3C" fill-opacity="0.6"/>
</svg>
